<?xml version="1.0" encoding="UTF-8"?><svg id="Layer_1" xmlns="http://www.w3.org/2000/svg" viewBox="0 0 24.69 23.513"><path d="M12.307,18.891c-.169.006-.338.055-.488.147l-6.84,4.209c-.019.011-.024.015-.047,0-.022-.011-.031-.038-.021-.06l1.86-7.85c.086-.363-.037-.745-.32-.989L.363,9.099c-.015-.012-.029-.024-.016-.062s.023-.034.041-.036l7.99-.645c.374-.032.698-.27.84-.618L12.296.286c.01-.021.014-.031.044-.031h.004c.03,0,.034.01.044.031l3.078,7.451c.142.347.466.585.84.618l7.99.645c.019.003.029-.002.041.036s-.001.05-.016.062l-6.088,5.25c-.283.244-.406.625-.32.989l1.86,7.85c.01.022,0,.049-.021.06-.024.015-.029.011-.047,0l-6.84-4.209c-.15-.092-.319-.142-.489-.148h-.067Z"/></svg>